<?xml version="1.0" encoding="UTF-8" standalone="no"?>
<!DOCTYPE svg PUBLIC "-//W3C//DTD SVG 1.1//EN" "http://www.w3.org/Graphics/SVG/1.1/DTD/svg11.dtd">
<svg xmlns="http://www.w3.org/2000/svg" version="1.1" viewBox="0.00 0.00 180.00 40.00">
<path fill="#3a3640" d="
  M 16.13 0.00
  L 18.52 0.00
  C 25.34 0.37 23.50 7.00 23.50 11.00
  Q 23.50 11.64 22.93 11.35
  C 14.31 7.00 7.19 14.66 8.36 23.12
  C 9.37 30.47 16.88 35.44 22.94 29.45
  A 0.38 0.38 0.0 0 1 23.59 29.78
  L 23.40 30.95
  A 0.52 0.52 0.0 0 0 23.95 31.55
  L 30.73 31.18
  Q 30.97 31.17 30.93 30.93
  L 30.87 30.65
  Q 30.83 30.45 30.64 30.38
  L 28.02 29.39
  Q 27.25 29.09 27.25 28.27
  L 27.25 1.99
  A 0.51 0.50 -76.0 0 1 27.99 1.54
  Q 41.46 8.69 39.25 24.23
  Q 39.19 24.65 38.76 24.68
  C 33.96 25.03 30.83 29.45 33.50 33.93
  Q 33.78 34.39 33.38 34.76
  Q 29.04 38.71 23.10 40.00
  L 16.44 40.00
  Q 2.90 36.84 0.00 23.15
  L 0.00 16.72
  Q 2.83 3.40 16.13 0.00
  Z"
/>
<path fill="#353234" d="
  M 54.25 28.47
  L 54.25 11.37
  Q 54.25 10.68 53.61 10.43
  L 51.57 9.63
  A 0.58 0.58 0.0 0 1 51.78 8.51
  C 56.23 8.52 61.91 7.94 65.67 9.24
  C 75.83 12.76 75.09 28.47 64.45 30.69
  Q 59.49 31.73 51.68 31.16
  Q 51.24 31.13 51.24 30.69
  L 51.25 30.40
  Q 51.25 30.00 51.63 29.89
  L 53.61 29.32
  A 0.88 0.88 0.0 0 0 54.25 28.47
  Z
  M 57.99 11.25
  L 58.05 28.43
  A 1.21 1.21 0.0 0 0 59.26 29.63
  L 60.68 29.63
  A 8.66 8.07 89.8 0 0 68.72 20.94
  L 68.72 18.66
  A 8.66 8.07 89.8 0 0 60.62 10.03
  L 59.20 10.03
  A 1.21 1.21 0.0 0 0 57.99 11.25
  Z"
/>
<path fill="#353234" d="
  M 93.48 17.00
  L 91.78 16.98
  Q 91.08 16.97 91.16 16.28
  L 91.23 15.63
  A 0.40 0.40 0.0 0 1 91.63 15.27
  L 93.50 15.26
  Q 94.01 15.25 94.01 14.75
  L 94.01 10.99
  Q 94.01 10.49 94.51 10.49
  L 96.50 10.51
  Q 96.99 10.51 96.99 11.00
  L 97.00 14.75
  Q 97.00 15.24 97.50 15.24
  L 100.91 15.28
  Q 101.46 15.29 101.57 15.83
  Q 101.69 16.43 101.34 16.77
  Q 101.11 16.98 100.60 16.98
  Q 99.16 16.96 97.71 17.01
  Q 97.22 17.03 97.22 17.52
  L 97.28 28.09
  A 0.95 0.94 -87.3 0 0 98.12 29.02
  L 101.45 29.41
  Q 101.92 29.46 101.92 29.94
  Q 101.91 30.33 101.39 30.61
  C 99.35 31.70 93.91 32.38 93.99 28.50
  Q 94.09 23.00 93.97 17.49
  Q 93.96 17.01 93.48 17.00
  Z"
/>
<path fill="#3a3640" d="
  M 12.95 25.04
  C 12.08 21.64 12.08 16.57 14.52 13.59
  C 16.56 11.10 20.28 10.64 22.39 13.29
  C 24.33 15.72 23.52 23.71 23.49 26.88
  Q 23.49 27.35 23.19 27.72
  C 19.65 32.15 14.22 30.04 12.95 25.04
  Z"
/>
<path fill="#353234" d="
  M 82.0967 31.6213
  A 8.45 7.74 92.6 0 1 74.7480 22.8289
  A 8.45 7.74 92.6 0 1 82.8633 14.7387
  A 8.45 7.74 92.6 0 1 90.2120 23.5311
  A 8.45 7.74 92.6 0 1 82.0967 31.6213
  Z
  M 82.5241 30.1400
  A 6.90 4.21 89.8 0 0 86.7100 23.2253
  A 6.90 4.21 89.8 0 0 82.4759 16.3400
  A 6.90 4.21 89.8 0 0 78.2900 23.2547
  A 6.90 4.21 89.8 0 0 82.5241 30.1400
  Z"
/>
<path fill="#4e515c" d="
  M 108.90 16.77
  C 111.48 15.38 114.47 13.54 116.81 16.11
  C 118.75 18.25 117.98 24.12 118.01 27.11
  C 118.02 28.45 118.44 29.64 119.86 29.81
  A 0.72 0.72 0.0 0 1 119.77 31.24
  L 113.00 31.25
  Q 112.50 31.25 112.50 30.75
  L 112.51 30.28
  Q 112.51 29.82 112.97 29.87
  Q 114.68 30.02 114.89 28.64
  Q 115.45 25.01 114.76 18.90
  A 1.11 1.10 15.9 0 0 114.33 18.14
  Q 111.34 15.80 108.82 18.80
  A 1.16 1.14 -24.7 0 0 108.55 19.51
  Q 108.39 25.41 108.49 27.77
  Q 108.58 29.72 110.54 29.82
  Q 111.00 29.84 110.99 30.30
  L 110.99 30.71
  Q 110.98 31.19 110.51 31.20
  Q 107.24 31.28 103.97 31.26
  Q 103.32 31.25 103.09 30.97
  Q 102.91 30.75 102.98 30.42
  Q 103.09 29.94 103.59 29.92
  Q 105.39 29.84 105.46 27.01
  Q 105.57 22.99 105.39 19.00
  Q 105.31 16.93 103.60 16.85
  A 0.77 0.77 0.0 0 1 103.62 15.32
  L 108.02 15.21
  Q 108.61 15.19 108.54 15.77
  L 108.46 16.47
  Q 108.39 17.04 108.90 16.77
  Z"
/>
<path fill="#4e515c" d="
  M 130.64 29.75
  C 127.47 32.79 120.47 31.70 122.27 26.20
  C 123.27 23.14 127.46 22.16 130.34 21.37
  A 0.78 0.77 88.8 0 0 130.90 20.78
  C 131.54 17.93 129.52 15.04 126.52 16.85
  Q 126.08 17.12 126.27 17.59
  Q 127.05 19.59 125.14 20.47
  A 1.60 1.60 0.0 0 1 122.88 18.91
  C 123.22 13.84 134.29 12.71 134.25 19.91
  Q 134.22 24.19 134.26 28.47
  Q 134.27 29.09 134.86 29.26
  L 136.34 29.68
  A 0.61 0.60 37.3 0 1 136.49 30.78
  Q 133.54 32.53 131.41 29.81
  Q 131.05 29.35 130.64 29.75
  Z
  M 130.89 22.85
  Q 126.13 23.18 125.53 27.64
  A 1.26 1.26 0.0 0 0 126.25 28.96
  Q 128.84 30.17 130.63 28.01
  A 1.59 1.57 65.3 0 0 131.00 26.99
  L 131.01 22.96
  Q 131.01 22.84 130.89 22.85
  Z"
/>
<path fill="#4e515c" d="
  M 144.07 16.79
  Q 148.33 12.89 152.31 16.91
  Q 152.70 17.31 153.14 16.97
  C 155.53 15.11 159.29 13.49 161.33 16.45
  C 162.92 18.75 162.24 24.68 162.26 27.75
  Q 162.27 29.64 164.16 29.77
  Q 164.60 29.80 164.75 30.21
  Q 164.94 30.78 164.58 31.07
  Q 164.36 31.25 163.90 31.25
  Q 160.67 31.28 157.47 31.21
  Q 156.97 31.19 157.00 30.70
  L 157.02 30.30
  Q 157.04 29.79 157.55 29.79
  Q 158.89 29.81 159.07 28.77
  Q 159.76 24.71 158.93 18.89
  Q 158.85 18.35 158.42 18.02
  Q 155.53 15.78 153.23 19.04
  Q 153.00 19.37 153.00 19.77
  L 153.00 28.79
  A 0.66 0.66 0.0 0 0 153.63 29.45
  Q 154.75 29.51 155.27 30.35
  A 0.59 0.59 0.0 0 1 154.77 31.25
  L 148.00 31.25
  Q 147.50 31.25 147.50 30.75
  L 147.49 30.28
  Q 147.49 29.82 147.94 29.83
  Q 149.71 29.87 149.73 28.01
  Q 149.79 24.27 149.72 20.54
  C 149.62 15.30 143.49 16.66 143.50 20.50
  Q 143.51 24.39 143.48 28.26
  Q 143.48 29.63 145.33 29.82
  Q 145.77 29.86 145.77 30.31
  L 145.77 30.74
  Q 145.77 31.25 145.26 31.25
  L 138.50 31.25
  A 0.53 0.52 1.0 0 1 137.97 30.71
  Q 138.00 29.43 139.49 29.63
  A 0.66 0.65 -85.8 0 0 140.24 28.98
  L 140.25 18.21
  A 0.87 0.87 0.0 0 0 139.74 17.42
  L 137.92 16.57
  A 0.59 0.59 0.0 0 1 138.13 15.45
  L 142.97 15.15
  Q 143.58 15.11 143.53 15.72
  L 143.47 16.49
  Q 143.40 17.40 144.07 16.79
  Z"
/>
<path fill="#4e515c" d="
  M 180.00 27.05
  L 180.00 27.92
  C 175.67 34.09 167.26 32.04 166.29 24.76
  C 164.74 13.23 180.43 10.92 179.68 22.31
  Q 179.65 22.75 179.21 22.75
  L 169.99 22.75
  Q 169.47 22.75 169.51 23.27
  C 169.93 28.36 174.73 32.51 178.58 27.04
  Q 178.85 26.66 179.32 26.74
  Q 179.66 26.80 180.00 27.05
  Z
  M 169.96 21.24
  L 176.18 21.26
  A 0.24 0.24 0.0 0 0 176.42 21.02
  L 176.42 20.90
  A 4.56 3.22 -89.9 0 0 173.20 16.33
  L 172.94 16.33
  A 4.56 3.22 -89.9 0 0 169.72 20.88
  L 169.72 21.00
  A 0.24 0.24 0.0 0 0 169.96 21.24
  Z"
/>
<circle fill="#3a3640" cx="38.49" cy="30.77" r="4.50"/>
</svg>
